<?xml version="1.0" encoding="utf-8"?>
<!-- Generator: Adobe Illustrator 26.0.1, SVG Export Plug-In . SVG Version: 6.00 Build 0)  -->
<svg version="1.1" id="Layer_1" xmlns="http://www.w3.org/2000/svg" xmlns:xlink="http://www.w3.org/1999/xlink" x="0px" y="0px"
	 viewBox="0 0 1920 1080" style="enable-background:new 0 0 1920 1080;" xml:space="preserve">
<style type="text/css">
	.st0{fill:#5F4B8B;}
	.st1{fill:none;}
</style>
<g>
	<g>
		<path class="st0" d="M68.2,551.2c0,11.2-8.6,20.2-20.2,20.2c-11.2,0-19.8-9-19.8-20.2V291.2c0-11.2,8.6-20.2,19.8-20.2
			c11.6,0,20.2,9,20.2,20.2V551.2z"/>
	</g>
	<g>
		<path class="st0" d="M49.9,571.5c-9.9,0-17.6-7.3-17.6-17.6c0-9.5,7.7-17.2,17.6-17.2H260c9.9,0,17.6,7.7,17.6,17.2
			c0,10.3-7.7,17.6-17.6,17.6H49.9z"/>
	</g>
	<g>
		<path class="st0" d="M49.9,305.8c-9.9,0-17.6-7.3-17.6-17.6c0-9.5,7.7-17.2,17.6-17.2H260c9.9,0,17.6,7.7,17.6,17.2
			c0,10.3-7.7,17.6-17.6,17.6H49.9z"/>
	</g>
	<path class="st0" d="M870,291.2c0-11.2,8.6-20.2,19.8-20.2c11.6,0,20.2,9,20.2,20.2v176.1c0,64.4-49.8,106.1-108.3,106.1
		c-58.4,0-108.3-41.7-108.3-106.1V291.2c0-11.2,8.6-20.2,19.8-20.2c11.6,0,20.2,9,20.2,20.2v176.1c0,40.8,31.8,67.4,68.3,67.4
		c36.5,0,68.3-26.6,68.3-67.4V291.2z"/>
	<path class="st0" d="M1043.6,551.2c0,11.2-8.6,20.2-20.2,20.2c-11.2,0-19.8-9-19.8-20.2V291.2c0-11.2,8.6-20.2,19.8-20.2
		c11.6,0,20.2,9,20.2,20.2V551.2z"/>
	<path class="st0" d="M1313.8,291.2c0-11.2,8.6-20.2,19.8-20.2c11.6,0,20.2,9,20.2,20.2v176.1c0,64.4-49.8,106.1-108.3,106.1
		c-58.4,0-108.3-41.7-108.3-106.1V291.2c0-11.2,8.6-20.2,19.8-20.2c11.6,0,20.2,9,20.2,20.2v176.1c0,40.8,31.8,67.4,68.3,67.4
		c36.5,0,68.3-26.6,68.3-67.4V291.2z"/>
	<path class="st0" d="M1633,528c-3.9,7.7-9.9,17.6-21.9,17.6c-12,0-18-9.9-21.9-17.6l-88.9-181.3l-24.9,206.6
		c-1.3,10.7-9.5,18-19.8,18c-11.2,0-19.3-8.2-19.3-18.5c0-0.9,0-1.7,0-2.6l31.8-259.9c1.3-10.3,9-19.3,19.3-19.3h4.3
		c8.6,0,15.5,4.3,18.5,10.3l100.5,209.2l100.5-209.2c2.6-6,9.9-10.3,18.9-10.3h4.3c10.3,0,18,9,19.3,19.3l31.8,259.9
		c0,0.9,0,1.7,0,2.6c0,10.3-8.2,18.5-19.3,18.5c-10.7,0-18.5-7.3-19.8-18L1721,346.7L1633,528z"/>
	<g>
		<path class="st0" d="M240.5,433.5c4.7,0,8.4,5.6,8.4,13.3c0,7.7-3.7,13.7-8.4,13.7H108.3c-4.7,0-8.4-6-8.4-13.7
			c0-7.7,3.7-13.3,8.4-13.3H240.5z"/>
	</g>
	<g>
		<path class="st0" d="M240.5,381.9c4.7,0,8.4,5.6,8.4,13.3c0,7.7-3.7,13.7-8.4,13.7H108.3c-4.7,0-8.4-6-8.4-13.7
			c0-7.7,3.7-13.3,8.4-13.3H240.5z"/>
	</g>
	<line class="st1" x1="52.9" y1="273.1" x2="52.9" y2="570.7"/>
	<g>
		<path class="st0" d="M499.2,600.3c0,7.8-8.6,14.3-19.8,14.3c-10.7,0-19.3-6.5-19.3-14.3v-120c0-7.8,8.6-14.3,19.3-14.3
			c11.2,0,19.8,6.5,19.8,14.3V600.3z"/>
	</g>
	<path class="st0" d="M629.9,421.8c0,58.6-32.2,109.4-80.5,134.6c-9-2.3-15.8-11.4-15.8-22.3c0-8.2,3.6-15.2,10.1-19.8l0,0l5.7-4.6
		c24.7-20.7,40.1-52.2,40.1-87.8c0-62.7-47.7-113.4-110-113.4c-61.9,0-109.6,50.7-109.6,113.4c0,35.5,15.3,67.1,39.8,87.7l5.8,4.7
		c6.5,4.6,10.2,11.7,10.2,19.9c0,10.9-6.8,20-15.8,22.3c-48-25.3-79.9-76-79.9-134.6c0-84.2,65.3-152.1,149.5-152.1
		C564.2,269.8,629.9,337.6,629.9,421.8z"/>
	<g>
		<path class="st0" d="M44.6,790.1c0,4.5-3.4,8.1-8.1,8.1c-4.5,0-7.9-3.6-7.9-8.1v-104c0-4.5,3.4-8.1,7.9-8.1c4.6,0,8.1,3.6,8.1,8.1
			V790.1z"/>
		<path class="st0" d="M151.7,708.1v82c0,4.5-3.4,8.1-7.9,8.1c-4.6,0-8.1-3.6-8.1-8.1V685.9c0-4.3,3.6-7.9,7.9-7.9h2.2
			c3.6,0,6.2,1.2,8.1,4.6l51,84.7v-81.3c0-4.5,3.4-8.1,7.9-8.1c4.6,0,8.1,3.6,8.1,8.1v104.5c0,4.1-3.4,7.6-7.6,7.6h-2.2
			c-3.4,0-5.8-1.2-7.7-4.5L151.7,708.1z"/>
		<path class="st0" d="M306.8,693.8c-4.1,0-7.6-3.3-7.6-7.6c0-4.1,3.4-7.4,7.6-7.4h75.3c4.1,0,7.6,3.3,7.6,7.4
			c0,4.3-3.4,7.6-7.6,7.6h-29.6v96.2c0,4.5-3.4,8.1-8.1,8.1c-4.5,0-7.9-3.6-7.9-8.1v-96.2H306.8z"/>
		<path class="st0" d="M483.8,746.6v35.7h49.5c4.1,0,7.6,3.3,7.6,7.6c0,4.1-3.4,7.4-7.6,7.4h-57.4c-4.3,0-8.1-3.8-8.1-8.2V687.1
			c0-4.5,3.8-8.2,8.1-8.2h55.3c4.1,0,7.6,3.3,7.6,7.4c0,4.3-3.4,7.6-7.6,7.6h-47.4v37.8h40.9c4.1,0,7.6,3.3,7.6,7.6
			c0,4.1-3.4,7.4-7.6,7.4H483.8z"/>
		<path class="st0" d="M631.4,797.3c-4.3,0-8.1-3.8-8.1-8.2V686.1c0-4.5,3.4-8.1,7.9-8.1c4.6,0,8.1,3.6,8.1,8.1v96.2h41.6
			c4.1,0,7.6,3.3,7.6,7.4c0,4.3-3.4,7.6-7.6,7.6H631.4z"/>
		<path class="st0" d="M774.7,797.3c-4.3,0-8.1-3.8-8.1-8.2V686.1c0-4.5,3.4-8.1,7.9-8.1c4.6,0,8.1,3.6,8.1,8.1v96.2h41.6
			c4.1,0,7.6,3.3,7.6,7.4c0,4.3-3.4,7.6-7.6,7.6H774.7z"/>
		<path class="st0" d="M926.1,790.1c0,4.5-3.4,8.1-8.1,8.1c-4.5,0-7.9-3.6-7.9-8.1v-104c0-4.5,3.4-8.1,7.9-8.1
			c4.6,0,8.1,3.6,8.1,8.1V790.1z"/>
		<path class="st0" d="M1010.1,738.3c0-33.7,26.1-60.8,59.8-60.8c13.2,0,37.1,6.4,37.1,17.2c0,4.5-3.4,7.6-7.2,7.6
			c-2.1,0-4.1-0.7-5.7-1.9c-6.9-4.6-15.3-7.6-24.2-7.6c-24.7,0-43.8,20.4-43.8,45.5s19.1,45.4,43.8,45.4c21.3,0,37.5-12.4,38.5-32
			h-28.5c-3.8,0-7-3.1-7-7c0-3.8,3.3-6.9,7-6.9h38.3c4.8,0,6.2,2.6,6.2,7.9c0,32.1-23.2,53.3-54.5,53.3
			C1036.3,799,1010.1,771.9,1010.1,738.3z"/>
		<path class="st0" d="M1221,746.6v35.7h49.5c4.1,0,7.6,3.3,7.6,7.6c0,4.1-3.4,7.4-7.6,7.4h-57.4c-4.3,0-8.1-3.8-8.1-8.2V687.1
			c0-4.5,3.8-8.2,8.1-8.2h55.3c4.1,0,7.6,3.3,7.6,7.4c0,4.3-3.4,7.6-7.6,7.6H1221v37.8h40.9c4.1,0,7.6,3.3,7.6,7.6
			c0,4.1-3.4,7.4-7.6,7.4H1221z"/>
		<path class="st0" d="M1376.5,708.1v82c0,4.5-3.4,8.1-7.9,8.1c-4.6,0-8.1-3.6-8.1-8.1V685.9c0-4.3,3.6-7.9,7.9-7.9h2.2
			c3.6,0,6.2,1.2,8.1,4.6l51,84.7v-81.3c0-4.5,3.4-8.1,7.9-8.1c4.6,0,8.1,3.6,8.1,8.1v104.5c0,4.1-3.4,7.6-7.6,7.6h-2.2
			c-3.4,0-5.8-1.2-7.7-4.5L1376.5,708.1z"/>
		<path class="st0" d="M1589.7,677.5c15.5,0,29.2,5.5,39.3,14.8c3.1,2.7,3.6,7.7,0.9,11.2c-3.1,3.4-8.1,3.6-11.3,0.9
			c-7.7-6.9-17.5-11.3-28.9-11.3c-24.7,0-44,20.3-44,45.4s19.2,45.2,44,45.2c11.3,0,21.1-4.5,28.9-11.3c3.3-2.7,8.2-2.6,11.3,0.9
			c2.8,3.4,2.2,8.4-0.9,11.2c-10.1,9.3-23.9,14.8-39.3,14.8c-33.5,0-60-27.1-60-60.8S1556.2,677.5,1589.7,677.5z"/>
		<path class="st0" d="M1728.6,746.6v35.7h49.5c4.1,0,7.6,3.3,7.6,7.6c0,4.1-3.4,7.4-7.6,7.4h-57.4c-4.3,0-8.1-3.8-8.1-8.2V687.1
			c0-4.5,3.8-8.2,8.1-8.2h55.3c4.1,0,7.6,3.3,7.6,7.4c0,4.3-3.4,7.6-7.6,7.6h-47.4v37.8h40.9c4.1,0,7.6,3.3,7.6,7.6
			c0,4.1-3.4,7.4-7.6,7.4H1728.6z"/>
	</g>
</g>
<g>
	<g>
		<path class="st0" d="M1823.4,252.3c-1.4,0-2.6-1.1-2.6-2.6c0-1.4,1.2-2.6,2.6-2.6h26.3c1.4,0,2.6,1.1,2.6,2.6
			c0,1.5-1.2,2.6-2.6,2.6h-10.3v33.6c0,1.6-1.2,2.8-2.8,2.8c-1.6,0-2.8-1.3-2.8-2.8v-33.6H1823.4z"/>
		<path class="st0" d="M1883.5,282.7c-0.5,1.1-1.4,2.5-3.1,2.5c-1.7,0-2.5-1.4-3.1-2.5l-12.4-25.3l-3.5,28.9
			c-0.2,1.5-1.3,2.5-2.8,2.5c-1.6,0-2.7-1.1-2.7-2.6c0-0.1,0-0.2,0-0.4l4.4-36.3c0.2-1.4,1.3-2.7,2.7-2.7h0.6c1.2,0,2.2,0.6,2.6,1.4
			l14,29.2l14-29.2c0.4-0.8,1.4-1.4,2.6-1.4h0.6c1.4,0,2.5,1.3,2.7,2.7l4.4,36.3c0,0.1,0,0.2,0,0.4c0,1.4-1.1,2.6-2.7,2.6
			c-1.5,0-2.6-1-2.8-2.5l-3.5-28.9L1883.5,282.7z"/>
	</g>
</g>
</svg>
